<svg xmlns="http://www.w3.org/2000/svg" viewBox="0 0 512 512" width="512" height="512">
  <!-- Background -->
  <rect width="512" height="512" rx="100" fill="#0a0a0a"/>

  <!-- Ghost body -->
  <path d="M256 100
    C190 100 148 148 148 210
    L148 360
    L178 340 L208 360 L238 340 L256 360 L274 340 L304 360 L334 340 L364 360
    L364 210
    C364 148 322 100 256 100Z"
    fill="#e0e0e0"/>

  <!-- Ghost eyes -->
  <circle cx="224" cy="220" r="20" fill="#0a0a0a"/>
  <circle cx="288" cy="220" r="20" fill="#0a0a0a"/>

  <!-- Eye shine -->
  <circle cx="231" cy="213" r="7" fill="#ffffff"/>
  <circle cx="295" cy="213" r="7" fill="#ffffff"/>

  <!-- Chat bubble (small, top-right of ghost) -->
  <rect x="300" y="108" width="90" height="56" rx="12" fill="#4ade80"/>
  <polygon points="310,164 296,180 330,164" fill="#4ade80"/>
  <!-- Dots inside bubble -->
  <circle cx="325" cy="136" r="6" fill="#0a0a0a"/>
  <circle cx="345" cy="136" r="6" fill="#0a0a0a"/>
  <circle cx="365" cy="136" r="6" fill="#0a0a0a"/>
</svg>
